<!DOCTYPE svg PUBLIC "-//W3C//DTD SVG 1.1//EN" "http://www.w3.org/Graphics/SVG/1.1/DTD/svg11.dtd">
<!-- Uploaded to: SVG Repo, www.svgrepo.com, Transformed by: SVG Repo Mixer Tools -->
<svg width="800px" height="800px" viewBox="0 0 1024 1024" xmlns="http://www.w3.org/2000/svg" fill="#fafafa" stroke="#fafafa">
<g id="SVGRepo_bgCarrier" stroke-width="0"/>
<g id="SVGRepo_tracerCarrier" stroke-linecap="round" stroke-linejoin="round"/>
<g id="SVGRepo_iconCarrier">
<path fill="#fafafa" d="M432 928a48 48 0 1 1 0-96 48 48 0 0 1 0 96zm320 0a48 48 0 1 1 0-96 48 48 0 0 1 0 96zM96 128a32 32 0 0 1 0-64h160a32 32 0 0 1 31.36 25.728L320.64 256H928a32 32 0 0 1 31.296 38.72l-96 448A32 32 0 0 1 832 768H384a32 32 0 0 1-31.36-25.728L229.76 128H96zm314.24 576h395.904l82.304-384H333.44l76.8 384z"/>
</g>
</svg>